<?xml version="1.0" encoding="utf-8"?>
<!-- Generator: Adobe Illustrator 20.1.0, SVG Export Plug-In . SVG Version: 6.00 Build 0)  -->
<!DOCTYPE svg PUBLIC "-//W3C//DTD SVG 1.1//EN" "http://www.w3.org/Graphics/SVG/1.1/DTD/svg11.dtd">
<svg version="1.1" id="Layer_1" xmlns="http://www.w3.org/2000/svg" xmlns:xlink="http://www.w3.org/1999/xlink" x="0px" y="0px"
	 viewBox="0 0 205 132" style="enable-background:new 0 0 205 132;" xml:space="preserve">
<style type="text/css">
	.st0{fill:#FFFFFF;}
	.st1{fill:#DD2211;}
</style>
<rect x="0" y="0" class="st0" width="205" height="131.9"/>
<g>
	<path class="st1" d="M103.6,13.1c-10.6,0-19.2,8.6-19.2,19.2c0,10.6,8.6,19.2,19.2,19.2c10.6,0,19.2-8.6,19.2-19.2
		C122.8,21.7,114.2,13.1,103.6,13.1z M116.4,31.1c-0.6,1.7-2.1,3.3-4.4,3.3c-2.3,0-3.6-1.9-3.6-1.9c-3.3-4.3,3.7-11,3.7-11
		C117.8,27.3,116.4,31.1,116.4,31.1z"/>
	<g>
		<g>
			<path class="st1" d="M149.5,76.2C149.2,65,140,56,128.7,56c0,0,0,0,0,0v0H79.6v0c0,0,0,0,0,0c-11.3,0-20.5,9-20.8,20.2h0v55.7
				h17.2V84.4h3.7v47.5h49.1V84.4h3.7v47.5h17.2L149.5,76.2L149.5,76.2z M120.9,75.8c-0.6,1.7-2.1,3.3-4.4,3.3s-3.6-1.9-3.6-1.9
				c-3.3-4.3,3.7-11,3.7-11C122.3,72,120.9,75.8,120.9,75.8z"/>
		</g>
	</g>
</g>
</svg>
