<?xml version="1.0" encoding="utf-8"?>
<!-- Generator: Adobe Illustrator 20.1.0, SVG Export Plug-In . SVG Version: 6.00 Build 0)  -->
<!DOCTYPE svg PUBLIC "-//W3C//DTD SVG 1.1//EN" "http://www.w3.org/Graphics/SVG/1.1/DTD/svg11.dtd">
<svg version="1.1" id="Layer_1" xmlns="http://www.w3.org/2000/svg" xmlns:xlink="http://www.w3.org/1999/xlink" x="0px" y="0px"
	 viewBox="0 0 205 132" style="enable-background:new 0 0 205 132;" xml:space="preserve">
<style type="text/css">
	.st0{fill:#FFFFFF;}
	.st1{fill:#DD2211;}
</style>
<rect x="0.2" class="st0" width="204.6" height="131.8"/>
<g>
	<circle class="st1" cx="102.3" cy="31.8" r="19.5"/>
	<g>
		<path class="st1" d="M106.7,65.8c-3.3,0-6.4,1.3-8.7,3.6c-2.3,2.3-3.6,5.4-3.6,8.7c0,6.8,5.5,12.4,12.4,12.4
			c6.8,0,12.4-5.5,12.4-12.4C119.1,71.3,113.5,65.8,106.7,65.8z M113.4,84.8c-1.8,1.8-4.2,2.8-6.7,2.8c-5.2,0-9.5-4.2-9.5-9.5
			c0-2.5,1-4.9,2.8-6.7c1.8-1.8,4.2-2.8,6.7-2.8c5.2,0,9.5,4.2,9.5,9.5C116.2,80.7,115.2,83.1,113.4,84.8z"/>
		<path class="st1" d="M106.7,72.9c-1.4,0-2.7,0.5-3.7,1.5c-1,1-1.5,2.3-1.5,3.7c0,2.9,2.4,5.3,5.3,5.3c1.4,0,2.7-0.5,3.7-1.5
			c1-1,1.5-2.3,1.5-3.7C112,75.2,109.6,72.9,106.7,72.9z M106.7,80.5c-1.4,0-2.5-1.1-2.5-2.5c0-1.4,1.1-2.5,2.5-2.5
			c1.4,0,2.5,1.1,2.5,2.5C109.2,79.4,108.1,80.5,106.7,80.5z"/>
		<path class="st1" d="M148.8,76.2c-0.4-11.3-9.7-20.4-21.1-20.4c0,0,0,0,0,0v0H78v0c0,0,0,0,0,0c-11.4,0-20.7,9.1-21.1,20.4h0v55.6
			h17.4V84.6H78v47.2h49.7V84.6h3.8v47.2h17.4L148.8,76.2L148.8,76.2z M106.7,94.7c-9.1,0-16.5-7.4-16.5-16.5
			c0-4.4,1.7-8.6,4.8-11.7c3.1-3.1,7.3-4.8,11.7-4.8c9.1,0,16.5,7.4,16.5,16.6C123.3,87.3,115.9,94.7,106.7,94.7z"/>
	</g>
</g>
</svg>
