<?xml version="1.0" encoding="utf-8"?>
<!-- Generator: Adobe Illustrator 20.1.0, SVG Export Plug-In . SVG Version: 6.00 Build 0)  -->
<!DOCTYPE svg PUBLIC "-//W3C//DTD SVG 1.1//EN" "http://www.w3.org/Graphics/SVG/1.1/DTD/svg11.dtd">
<svg version="1.1" id="Layer_1" xmlns="http://www.w3.org/2000/svg" xmlns:xlink="http://www.w3.org/1999/xlink" x="0px" y="0px"
	 viewBox="0 0 205 132" style="enable-background:new 0 0 205 132;" xml:space="preserve">
<style type="text/css">
	.st0{fill:#FFFFFF;}
	.st1{fill:#DD2211;}
</style>
<rect y="0" class="st0" width="204.8" height="132"/>
<g>
	<g>
		<path class="st1" d="M103,40.1c-0.6,0-1.2,0.2-1.6,0.7c-0.4,0.4-0.7,1-0.7,1.6c0,1.3,1,2.3,2.3,2.3c0.6,0,1.2-0.2,1.6-0.7
			c0.4-0.4,0.7-1,0.7-1.6C105.3,41.2,104.3,40.1,103,40.1z M103,43.5c-0.6,0-1.1-0.5-1.1-1.1c0-0.6,0.5-1.1,1.1-1.1s1.1,0.5,1.1,1.1
			C104.1,43,103.6,43.5,103,43.5z"/>
		<path class="st1" d="M103,37c-1.4,0-2.8,0.6-3.8,1.6c-1,1-1.6,2.4-1.6,3.8c0,3,2.4,5.4,5.4,5.4s5.4-2.4,5.4-5.4S106,37,103,37z
			 M106,45.4c-0.8,0.8-1.8,1.2-2.9,1.2c-2.3,0-4.2-1.9-4.2-4.2c0-1.1,0.4-2.2,1.2-2.9c0.8-0.8,1.8-1.2,2.9-1.2
			c2.3,0,4.2,1.9,4.2,4.2C107.2,43.5,106.8,44.6,106,45.4z"/>
		<path class="st1" d="M103,13.1c-10.7,0-19.3,8.6-19.3,19.3c0,10.7,8.6,19.3,19.3,19.3c10.7,0,19.3-8.6,19.3-19.3
			C122.3,21.7,113.7,13.1,103,13.1z M103,49.7c-4,0-7.3-3.3-7.3-7.3c0-1.9,0.8-3.8,2.1-5.1c1.4-1.4,3.2-2.1,5.1-2.1
			c4,0,7.3,3.3,7.3,7.3C110.3,46.4,107,49.7,103,49.7z"/>
	</g>
	<g>
		<path class="st1" d="M103,63.1c-0.6,0-1.2,0.2-1.6,0.7c-0.4,0.4-0.7,1-0.7,1.6c0,1.3,1,2.3,2.3,2.3c0.6,0,1.2-0.2,1.6-0.7
			c0.4-0.4,0.7-1,0.7-1.6C105.3,64.1,104.3,63.1,103,63.1z M103,66.4c-0.6,0-1.1-0.5-1.1-1.1c0-0.6,0.5-1.1,1.1-1.1s1.1,0.5,1.1,1.1
			C104.1,65.9,103.6,66.4,103,66.4z"/>
		<path class="st1" d="M73.1,69.3c-0.6,0-1.2,0.2-1.6,0.7c-0.4,0.4-0.7,1-0.7,1.6c0,1.3,1,2.3,2.3,2.3c0.6,0,1.2-0.2,1.6-0.7
			c0.4-0.4,0.7-1,0.7-1.6C75.5,70.3,74.4,69.3,73.1,69.3z M73.1,72.6c-0.6,0-1.1-0.5-1.1-1.1c0-0.6,0.5-1.1,1.1-1.1
			c0.6,0,1.1,0.5,1.1,1.1C74.2,72.1,73.7,72.6,73.1,72.6z"/>
		<path class="st1" d="M73.1,66.2c-1.4,0-2.8,0.6-3.8,1.6c-1,1-1.6,2.4-1.6,3.8c0,3,2.4,5.4,5.4,5.4c3,0,5.4-2.4,5.4-5.4
			C78.6,68.6,76.1,66.2,73.1,66.2z M76.1,74.5c-0.8,0.8-1.8,1.2-2.9,1.2c-2.3,0-4.2-1.9-4.2-4.2c0-1.1,0.4-2.2,1.2-2.9
			c0.8-0.8,1.8-1.2,2.9-1.2c2.3,0,4.2,1.9,4.2,4.2C77.3,72.7,76.9,73.7,76.1,74.5z"/>
		<path class="st1" d="M103,60c-1.4,0-2.8,0.6-3.8,1.6c-1,1-1.6,2.4-1.6,3.8c0,3,2.4,5.4,5.4,5.4s5.4-2.4,5.4-5.4
			C108.4,62.4,106,60,103,60z M106,68.3c-0.8,0.8-1.8,1.2-2.9,1.2c-2.3,0-4.2-1.9-4.2-4.2c0-1.1,0.4-2.2,1.2-2.9
			c0.8-0.8,1.8-1.2,2.9-1.2c2.3,0,4.2,1.9,4.2,4.2C107.2,66.5,106.8,67.5,106,68.3z"/>
		<path class="st1" d="M140.6,101.1c-1.4,0-2.8,0.6-3.8,1.6c-1,1-1.6,2.4-1.6,3.8c0,3,2.4,5.4,5.4,5.4c3,0,5.4-2.4,5.4-5.4
			C146,103.5,143.6,101.1,140.6,101.1z M143.5,109.5c-0.8,0.8-1.8,1.2-2.9,1.2c-2.3,0-4.2-1.9-4.2-4.2c0-1.1,0.4-2.2,1.2-2.9
			c0.8-0.8,1.8-1.2,2.9-1.2c2.3,0,4.2,1.9,4.2,4.2C144.7,107.6,144.3,108.7,143.5,109.5z"/>
		<path class="st1" d="M149.2,76.4c-0.4-11.2-9.6-20.2-20.9-20.2c0,0,0,0,0,0v0H79v0c0,0,0,0,0,0c-11.3,0-20.5,9-20.9,20.2h0v55.5
			h17.2V84.7H79v47.2h49.3V84.7h3.7v47.2h17.2L149.2,76.4L149.2,76.4z M73.1,78.8c-4,0-7.3-3.3-7.3-7.3c0-1.9,0.8-3.8,2.1-5.1
			c1.4-1.4,3.2-2.1,5.1-2.1c4,0,7.3,3.3,7.3,7.3C80.4,75.6,77.1,78.8,73.1,78.8z M103,72.6c-4,0-7.3-3.3-7.3-7.3
			c0-1.9,0.8-3.8,2.1-5.1c1.4-1.4,3.2-2.1,5.1-2.1c4,0,7.3,3.3,7.3,7.3C110.3,69.4,107,72.6,103,72.6z M140.6,113.8
			c-4,0-7.3-3.3-7.3-7.3c0-1.9,0.8-3.8,2.1-5.1c1.4-1.4,3.2-2.1,5.1-2.1c4,0,7.3,3.3,7.3,7.3C147.8,110.5,144.6,113.8,140.6,113.8z"
			/>
		<path class="st1" d="M140.6,104.2c-0.6,0-1.2,0.2-1.6,0.7c-0.4,0.4-0.7,1-0.7,1.6c0,1.3,1,2.3,2.3,2.3c0.6,0,1.2-0.2,1.6-0.7
			c0.4-0.4,0.7-1,0.7-1.6C142.9,105.2,141.9,104.2,140.6,104.2z M140.6,107.6c-0.6,0-1.1-0.5-1.1-1.1c0-0.6,0.5-1.1,1.1-1.1
			c0.6,0,1.1,0.5,1.1,1.1C141.7,107.1,141.2,107.6,140.6,107.6z"/>
	</g>
</g>
</svg>
