<?xml version="1.0" encoding="utf-8"?>
<!-- Generator: Adobe Illustrator 20.1.0, SVG Export Plug-In . SVG Version: 6.00 Build 0)  -->
<!DOCTYPE svg PUBLIC "-//W3C//DTD SVG 1.1//EN" "http://www.w3.org/Graphics/SVG/1.1/DTD/svg11.dtd">
<svg version="1.1" id="Layer_1" xmlns="http://www.w3.org/2000/svg" xmlns:xlink="http://www.w3.org/1999/xlink" x="0px" y="0px"
	 viewBox="0 0 205 132" style="enable-background:new 0 0 205 132;" xml:space="preserve">
<style type="text/css">
	.st0{fill:#FFFFFF;}
	.st1{fill:#DD2211;}
</style>
<rect y="0.3" class="st0" width="205" height="131.7"/>
<g>
	<g>
		<path class="st1" d="M135,63.1L125.3,50c-8-10.8-15.6-6.4-15.6-6.4c-7.5,5.5,0.6,15.4,0.6,15.4l17.5,23.3
			c10.1,13.4,15.6,7.5,15.6,7.5c7.2-5.3-0.8-16.4-0.8-16.4L135,63.1z"/>
		<path class="st1" d="M121.3,42.3c0,0,6.9-11.2-1.8-22.4c0,0-6-9-18.7-6.8c0,0-13.9,1.5-16,16.7c0,0-1.9,9.4,5.7,16.8
			c0,0,4.3,4.9,13.8,5.6c0,0-1.1-7.2,3.5-10.3C112.2,38.8,118.2,40.4,121.3,42.3z"/>
	</g>
	<path class="st1" d="M106.6,58l-0.7-0.1c0,0-30.3-3.4-38,7.8c0,0-3.5,4.2-5.3,10.4l-4.2,15.5c0,0-4.4,14.2,5.9,18.2l17.2,4.7
		l17.5,4.1c0,0,18.3,4.6,17.6-6.4c0,0-0.6-6.7-12.4-9.6l-26.8-6.3v0l-2.2-0.5l3.2-10.9h2.9L78.6,94l27.6,6.1c0,0,13,2.3,13,12.7
		c0,0-0.1,7.7-8.2,9.1c0,0-5,1.4-17.7-1.9l-16-3.3v15h51.3V87.6L106.6,58z"/>
</g>
</svg>
