<?xml version="1.0" encoding="utf-8"?>
<!-- Generator: Adobe Illustrator 20.1.0, SVG Export Plug-In . SVG Version: 6.00 Build 0)  -->
<!DOCTYPE svg PUBLIC "-//W3C//DTD SVG 1.1//EN" "http://www.w3.org/Graphics/SVG/1.1/DTD/svg11.dtd">
<svg version="1.1" id="Layer_1" xmlns="http://www.w3.org/2000/svg" xmlns:xlink="http://www.w3.org/1999/xlink" x="0px" y="0px"
	 viewBox="0 0 205 132" style="enable-background:new 0 0 205 132;" xml:space="preserve">
<style type="text/css">
	.st0{fill:#FFFFFF;}
	.st1{fill:#DD2211;}
</style>
<rect class="st0" width="205" height="132"/>
<g>
	<path class="st1" d="M149.9,77.2c-0.4-11.4-9.7-20.6-21.3-20.6c0,0,0,0,0,0v0H78.5v0c0,0,0,0,0,0c-11.5,0-20.9,9.2-21.3,20.6h0V132
		h17.6V85.7h3.8V132h50.1V85.7h3.8V132h17.6L149.9,77.2L149.9,77.2z"/>
	<circle class="st1" cx="103" cy="32.4" r="19.6"/>
	<path class="st1" d="M161.1,36.3c-0.7-7.1-6.7-7.8-6.7-7.8c-8.8-0.5-9.6,7.8-9.6,7.8L124,41.4v5.3l21.2,6.5
		c1.5,7.4,8.7,6.8,8.7,6.8c7.4-1.1,7.3-8.2,7.3-8.2c6.5-1.5,6.5-7.7,6.5-7.7C167.4,37.3,161.1,36.3,161.1,36.3z"/>
</g>
</svg>
