<?xml version="1.0" encoding="utf-8"?>
<!-- Generator: Adobe Illustrator 20.1.0, SVG Export Plug-In . SVG Version: 6.00 Build 0)  -->
<!DOCTYPE svg PUBLIC "-//W3C//DTD SVG 1.1//EN" "http://www.w3.org/Graphics/SVG/1.1/DTD/svg11.dtd">
<svg version="1.1" id="Layer_1" xmlns="http://www.w3.org/2000/svg" xmlns:xlink="http://www.w3.org/1999/xlink" x="0px" y="0px"
	 viewBox="0 0 205 132" style="enable-background:new 0 0 205 132;" xml:space="preserve">
<style type="text/css">
	.st0{fill:#FFFFFF;}
	.st1{fill:#DD2211;}
</style>
<rect class="st0" width="204.9" height="132"/>
<g>
	<path class="st1" d="M148.8,80.2c-0.4-11.2-9.5-20.1-20.8-20.1c0,0,0,0,0,0v0h-49v0c0,0,0,0,0,0c-11.3,0-20.4,9-20.8,20.1h0V132
		h17.2V88.5h3.7V132h49V88.5h3.7V132h17.2L148.8,80.2L148.8,80.2z"/>
	<g>
		<path class="st1" d="M67.8,22.2c-0.1-1.3,1.6-3.3,6.6-5.4c-0.4-0.5-0.8-1.1-1.1-1.5c-3.9,1.7-7.5,4.2-7.2,7.1
			c0.4,4.7,9.8,7,21.4,7.5c0.5-0.6,1.3-1.2,1.4-1.8C76.2,27.7,68,25.2,67.8,22.2z"/>
		<path class="st1" d="M124.9,25.5c-0.3-0.5-0.6-1.1-0.8-1.7c-6,1.8-13.5,3.2-21.4,3.8c-0.7,0.1-1.3,0.1-2,0.1
			c0.5,0.6,1.2,1.1,1.6,1.8c0.2,0,0.4,0,0.5,0C111,28.8,118.7,27.4,124.9,25.5z"/>
		<path class="st1" d="M103.1,7.6c-6.9,0.6-13.4,1.7-19,3.1c0.3,0.6,0.6,1.2,0.9,1.7c5.4-1.4,11.6-2.4,18.2-2.9
			C123.5,7.8,138,11,138.3,15c0.1,1.1-1.1,2.7-4.3,4.4c0.4,0.5,0.8,1,1.2,1.5c2.9-1.6,5.1-3.7,4.9-6.1
			C139.6,8.1,120.6,6.1,103.1,7.6z"/>
		<polygon class="st1" points="82.6,8.5 79,9.5 76.1,7 76,10.8 72.8,12.7 76.3,14.1 77.2,17.7 79.5,14.8 83.2,15.1 81.2,11.9 		"/>
		<polygon class="st1" points="133.1,17 129.5,18 126.7,15.6 126.5,19.3 123.3,21.3 126.8,22.6 127.7,26.3 130,23.4 133.8,23.6 
			131.7,20.5 		"/>
		<path class="st1" d="M102.9,17.2c-10.6,0-19.2,8.6-19.2,19.2c0,10.6,8.6,19.2,19.2,19.2c10.6,0,19.2-8.6,19.2-19.2
			C122.1,25.8,113.5,17.2,102.9,17.2z M94.3,30.3l-1.7,2.1L92,29.8l-2.5-1l2.3-1.4l0.1-2.7l2.1,1.7l2.6-0.7l-1,2.5l1.5,2.3
			L94.3,30.3z"/>
	</g>
</g>
</svg>
